<svg width="50" height="12" viewBox="0 0 50 12" fill="none" xmlns="http://www.w3.org/2000/svg">
<path d="M12.8704 5.96517C12.8704 8.4937 10.3196 10.7065 6.95064 10.7065C3.58167 10.7065 1.03088 8.4937 1.03088 5.96517C1.03088 3.43665 3.58167 1.22388 6.95064 1.22388C10.3196 1.22388 12.8704 3.43665 12.8704 5.96517Z" fill="white" stroke="black"/>
<path d="M30.8457 5.96517C30.8457 8.4937 28.2949 10.7065 24.9259 10.7065C21.557 10.7065 19.0062 8.4937 19.0062 5.96517C19.0062 3.43665 21.557 1.22388 24.9259 1.22388C28.2949 1.22388 30.8457 3.43665 30.8457 5.96517Z" fill="white" stroke="black"/>
<path d="M48.821 5.96517C48.821 8.4937 46.2702 10.7065 42.9013 10.7065C39.5323 10.7065 36.9815 8.4937 36.9815 5.96517C36.9815 3.43665 39.5323 1.22388 42.9013 1.22388C46.2702 1.22388 48.821 3.43665 48.821 5.96517Z" fill="white" stroke="black"/>
</svg>
