<svg width="185" height="80" viewBox="0 0 185 80" fill="none" xmlns="http://www.w3.org/2000/svg">
<path d="M19.824 38H4.128C3.456 38 3.12 37.664 3.12 36.992V8.144C3.12 7.472 3.456 7.136 4.128 7.136H19.824C20.464 7.136 20.784 7.472 20.784 8.144V11.408C20.784 12.08 20.464 12.416 19.824 12.416H9.792C9.408 12.416 9.216 12.592 9.216 12.944V19.184C9.216 19.536 9.408 19.712 9.792 19.712H18C18.672 19.712 19.008 20.048 19.008 20.72V23.984C19.008 24.656 18.672 24.992 18 24.992H9.792C9.408 24.992 9.216 25.168 9.216 25.52V32.192C9.216 32.544 9.408 32.72 9.792 32.72H19.824C20.464 32.72 20.784 33.056 20.784 33.728V36.992C20.784 37.664 20.464 38 19.824 38ZM30.6968 38H26.6168C25.9448 38 25.6088 37.664 25.6088 36.992V14.528C25.6088 13.856 25.9448 13.52 26.6168 13.52H30.6968C31.3688 13.52 31.7048 13.856 31.7048 14.528V16.112H31.8968C32.2808 15.344 32.9208 14.72 33.8168 14.24C34.7448 13.76 35.8008 13.52 36.9848 13.52H38.3288C41.1128 13.52 43.1128 14.544 44.3288 16.592C45.4168 14.544 47.2888 13.52 49.9448 13.52H51.3368C53.8008 13.52 55.6568 14.192 56.9048 15.536C58.1848 16.88 58.8248 18.816 58.8248 21.344V36.992C58.8248 37.664 58.4888 38 57.8168 38H53.7368C53.0648 38 52.7288 37.664 52.7288 36.992V21.632C52.7288 20.608 52.5208 19.888 52.1048 19.472C51.6888 19.024 50.9688 18.8 49.9448 18.8H48.7448C46.5368 18.8 45.4328 20.032 45.4328 22.496V36.992C45.4328 37.664 45.0808 38 44.3768 38H40.3448C39.6728 38 39.3368 37.664 39.3368 36.992V21.632C39.3368 20.608 39.1128 19.888 38.6648 19.472C38.2488 19.024 37.5288 18.8 36.5048 18.8H35.0168C32.8088 18.8 31.7048 20.016 31.7048 22.448V36.992C31.7048 37.664 31.3688 38 30.6968 38ZM72.4976 38H71.3456C68.8176 38 66.8656 37.328 65.4896 35.984C64.1136 34.64 63.4256 32.704 63.4256 30.176V21.344C63.4256 18.816 64.1136 16.88 65.4896 15.536C66.8656 14.192 68.8176 13.52 71.3456 13.52H82.4336C83.1376 13.52 83.4896 13.856 83.4896 14.528V36.992C83.4896 37.664 83.1376 38 82.4336 38H78.4016C77.7296 38 77.3936 37.664 77.3936 36.992V35.408H77.2016C76.8496 36.272 76.2256 36.928 75.3296 37.376C74.4336 37.792 73.4896 38 72.4976 38ZM77.3936 29.072V19.328C77.3936 18.976 77.2016 18.8 76.8176 18.8H72.3056C71.2816 18.8 70.5616 19.024 70.1456 19.472C69.7296 19.888 69.5216 20.608 69.5216 21.632V29.888C69.5216 30.912 69.7296 31.648 70.1456 32.096C70.5616 32.512 71.2816 32.72 72.3056 32.72H74.0816C76.2896 32.72 77.3936 31.504 77.3936 29.072ZM93.8374 38H89.7574C89.0854 38 88.7494 37.664 88.7494 36.992V14.528C88.7494 13.856 89.0854 13.52 89.7574 13.52H93.8374C94.5094 13.52 94.8454 13.856 94.8454 14.528V16.112H95.0374C95.7414 14.384 97.3094 13.52 99.7414 13.52H101.277C106.301 13.52 108.813 16.128 108.813 21.344V36.992C108.813 37.664 108.461 38 107.757 38H103.725C103.053 38 102.717 37.664 102.717 36.992V21.632C102.717 20.608 102.493 19.888 102.045 19.472C101.629 19.024 100.909 18.8 99.8854 18.8H98.1574C95.9494 18.8 94.8454 20.016 94.8454 22.448V36.992C94.8454 37.664 94.5094 38 93.8374 38ZM122.706 38H121.122C118.658 38 116.786 37.328 115.506 35.984C114.258 34.64 113.634 32.704 113.634 30.176V14.528C113.634 13.856 113.97 13.52 114.642 13.52H118.722C119.394 13.52 119.73 13.856 119.73 14.528V29.888C119.73 30.912 119.938 31.648 120.354 32.096C120.802 32.512 121.522 32.72 122.514 32.72H124.29C126.498 32.72 127.602 31.504 127.602 29.072V14.528C127.602 13.856 127.938 13.52 128.61 13.52H132.642C133.346 13.52 133.698 13.856 133.698 14.528V36.992C133.698 37.664 133.346 38 132.642 38H128.61C127.938 38 127.602 37.664 127.602 36.992V35.408H127.41C127.058 36.272 126.434 36.928 125.538 37.376C124.642 37.792 123.698 38 122.706 38ZM157.047 38H146.439C143.911 38 141.959 37.328 140.583 35.984C139.207 34.64 138.519 32.704 138.519 30.176V21.344C138.519 18.816 139.207 16.88 140.583 15.536C141.959 14.192 143.911 13.52 146.439 13.52H150.231C152.759 13.52 154.711 14.192 156.087 15.536C157.463 16.88 158.151 18.816 158.151 21.344V27.44C158.151 28.112 157.815 28.448 157.143 28.448H145.095C144.711 28.448 144.519 28.624 144.519 28.976V30.032C144.519 31.024 144.727 31.744 145.143 32.192C145.591 32.608 146.327 32.816 147.351 32.816H157.047C157.719 32.816 158.055 33.168 158.055 33.872V37.04C158.055 37.392 157.975 37.648 157.815 37.808C157.687 37.936 157.431 38 157.047 38ZM145.095 24.368H151.623C151.975 24.368 152.151 24.192 152.151 23.84V21.536C152.151 20.512 151.943 19.792 151.527 19.376C151.111 18.96 150.391 18.752 149.367 18.752H147.351C146.327 18.752 145.607 18.96 145.191 19.376C144.775 19.792 144.567 20.512 144.567 21.536V23.84C144.567 24.192 144.743 24.368 145.095 24.368ZM168.046 38H163.966C163.294 38 162.958 37.664 162.958 36.992V5.264C162.958 4.592 163.294 4.256 163.966 4.256H168.046C168.718 4.256 169.054 4.592 169.054 5.264V36.992C169.054 37.664 168.718 38 168.046 38Z" fill="#55E7A5"/>
<circle cx="181" cy="36" r="4" fill="#55E7A5"/>
</svg>
