<?xml version="1.0" encoding="UTF-8"?>
<svg width="700pt" height="700pt" version="1.1" viewBox="0 0 700 700" xmlns="http://www.w3.org/2000/svg">
 <path d="m192.5 105c0-28.996 23.504-52.5 52.5-52.5h210c28.996 0 52.5 23.504 52.5 52.5v122.5c28.996 0 52.5 23.504 52.5 52.5v70c19.332 0 35 15.672 35 35v35c0 19.332-15.668 35-35 35h-35c-19.332 0-35-15.668-35-35v-35c0-19.332 15.668-35 35-35v-70c0-9.6641-7.8359-17.5-17.5-17.5v52.5c0 28.996-23.504 52.5-52.5 52.5h-87.5v35c19.332 0 35 15.668 35 35v35c0 19.332-15.668 35-35 35h-35c-19.332 0-35-15.668-35-35v-35c0-19.332 15.668-35 35-35v-35h-87.5c-28.996 0-52.5-23.504-52.5-52.5v-52.5c-9.6641 0-17.5 7.8359-17.5 17.5v70c19.332 0 35 15.672 35 35v35c0 19.332-15.672 35-35 35h-35c-19.328 0-35-15.668-35-35v-35c0-19.332 15.672-35 35-35v-70c0-28.992 23.504-52.5 52.5-52.5zm52.5 17.5c0-9.6641 7.8359-17.5 17.5-17.5h17.5c9.6641 0 17.5 7.8359 17.5 17.5s-7.8359 17.5-17.5 17.5h-17.5c-9.6641 0-17.5-7.8359-17.5-17.5zm141.53 58.781c3.4688-9.0195-1.0312-19.145-10.055-22.613-9.0195-3.4727-19.145 1.0273-22.613 10.051l-40.387 105c-3.4688 9.0195 1.0312 19.145 10.055 22.613 9.0195 3.4727 19.145-1.0273 22.613-10.051zm37.922 0.55078c-5.8945-7.6641-16.883-9.0977-24.543-3.2031-7.6602 5.8945-9.0938 16.883-3.1992 24.539l18.715 24.332-18.715 24.332c-5.8945 7.6562-4.4609 18.645 3.1992 24.539 7.6602 5.8945 18.648 4.4609 24.543-3.2031l26.922-35c4.8398-6.2891 4.8398-15.047 0-21.336zm-121.16 21.336c5.8945-7.6562 4.4609-18.645-3.1992-24.539-7.6602-5.8945-18.648-4.4609-24.543 3.2031l-26.922 35c-4.8398 6.2891-4.8398 15.047 0 21.336l26.922 35c5.8945 7.6641 16.883 9.0977 24.543 3.2031 7.6602-5.8945 9.0938-16.883 3.1992-24.539l-18.715-24.332z" fill-rule="evenodd"/>
</svg>
